<svg width="30" height="30" viewBox="0 0 30 30" fill="none" xmlns="http://www.w3.org/2000/svg">
<path d="M11.25 2.50375V2.5H24.9975C25.6875 2.5 26.25 3.06875 26.25 3.74V26.26C26.2497 26.589 26.1188 26.9044 25.886 27.1369C25.6533 27.3694 25.3378 27.5 25.0088 27.5H4.99128C4.82713 27.4989 4.66481 27.4654 4.51359 27.4015C4.36237 27.3376 4.22521 27.2446 4.10995 27.1277C3.99469 27.0108 3.90358 26.8724 3.84182 26.7203C3.78007 26.5682 3.74888 26.4054 3.75003 26.2412V10L11.25 2.50375ZM7.28753 10H11.25V6.0375L7.28753 10ZM13.75 5V11.25C13.75 11.5815 13.6183 11.8995 13.3839 12.1339C13.1495 12.3683 12.8316 12.5 12.5 12.5H6.25003V25H23.75V5H13.75Z" fill="white"/>
</svg>
