<svg width="36" height="36" viewBox="0 0 36 36" fill="none" xmlns="http://www.w3.org/2000/svg">
<path d="M22.575 7.5C24.0401 7.78585 25.3866 8.50239 26.4421 9.5579C27.4976 10.6134 28.2142 11.9599 28.5 13.425L22.575 7.5ZM22.575 1.5C25.6189 1.83815 28.4574 3.20126 30.6244 5.36551C32.7914 7.52976 34.158 10.3665 34.5 13.41L22.575 1.5ZM33 25.38V29.88C33.0017 30.2978 32.9161 30.7113 32.7488 31.094C32.5814 31.4768 32.336 31.8204 32.0281 32.1028C31.7203 32.3852 31.3569 32.6002 30.9611 32.7341C30.5654 32.8679 30.1461 32.9176 29.73 32.88C25.1143 32.3785 20.6805 30.8012 16.785 28.275C13.1608 25.972 10.088 22.8993 7.78502 19.275C5.24999 15.3618 3.67239 10.9065 3.18002 6.27C3.14254 5.8552 3.19183 5.43714 3.32477 5.04244C3.45771 4.64773 3.67138 4.28503 3.95217 3.97743C4.23296 3.66983 4.57473 3.42406 4.95571 3.25578C5.33669 3.0875 5.74853 3.00039 6.16502 3H10.665C11.393 2.99284 12.0987 3.25062 12.6507 3.7253C13.2026 4.19998 13.5631 4.85917 13.665 5.58C13.855 7.0201 14.2072 8.43409 14.715 9.795C14.9168 10.3319 14.9605 10.9154 14.8409 11.4763C14.7212 12.0373 14.4433 12.5522 14.04 12.96L12.135 14.865C14.2704 18.6203 17.3797 21.7297 21.135 23.865L23.04 21.96C23.4479 21.5567 23.9628 21.2788 24.5237 21.1591C25.0846 21.0395 25.6681 21.0832 26.205 21.285C27.5659 21.7928 28.9799 22.1451 30.42 22.335C31.1487 22.4378 31.8141 22.8048 32.2898 23.3662C32.7655 23.9277 33.0183 24.6444 33 25.38Z" stroke="white" stroke-width="2" stroke-linecap="round" stroke-linejoin="round"/>
</svg>
